<svg width="280" height="60" viewBox="0 0 280 60" fill="none" xmlns="http://www.w3.org/2000/svg">
<path d="M49.8785 0H9.06883C4.06025 0 0 4.13276 0 9.23077V50.7692C0 55.8672 4.06025 60 9.06883 60H49.8785C54.8871 60 58.9474 55.8672 58.9474 50.7692V9.23077C58.9474 4.13276 54.8871 0 49.8785 0Z" fill="url(#paint0_linear_19_2)"/>
<path d="M30.093 50.4949L9.33801 29.5303L22.3854 33.2379L30.093 50.4949Z" fill="#015F43"/>
<path d="M39.5935 47.6126L32.772 40.7224L38.0041 21.6349L39.5935 47.6126Z" fill="#015F43"/>
<path d="M49.457 9.80203L39.5931 47.6126L38.0037 21.6349L49.457 9.80203Z" fill="#00B27E"/>
<path d="M49.457 9.80203L38.0037 21.6349L39.5931 47.6126L38.7715 22.0256L49.457 9.80203Z" fill="#00D2A3"/>
<path d="M38.0034 21.6349L19.1266 26.8339L12.4048 19.992L38.0034 21.6349Z" fill="#00865F"/>
<path d="M49.4567 9.80203L38.0034 21.6349L12.4048 19.992L49.4567 9.80203Z" fill="#00D2A3"/>
<path d="M37.5427 20.5408L12.4048 19.992L38.0034 21.6349L49.4567 9.80203L37.5427 20.5408Z" fill="#7AFFE0"/>
<path d="M30.0932 50.4951L22.3854 33.2381L38.0035 21.6349L32.7714 40.7224L30.0932 50.4951Z" fill="#00865F"/>
<path d="M30.0932 50.4951L22.3854 33.2381L38.0035 21.6349L32.7714 40.7224L30.0932 50.4951Z" fill="#00865F"/>
<path d="M30.0932 50.4951L23.23 33.5115L38.0035 21.6349L32.7714 40.7224L30.0932 50.4951Z" fill="#00865F"/>
<path d="M38.0035 21.6349L22.3854 33.2381L9.33801 29.5303L19.1266 26.8339L38.0035 21.6349Z" fill="#00B27E"/>
<path d="M22.1935 32.3783L9.33801 29.5303L22.3854 33.2381L38.0035 21.6349L22.1935 32.3783Z" fill="#00D2A3"/>
<path d="M95.1024 16.4648V43.125H89.7234V16.4648H95.1024ZM103.162 16.4648V20.7679H81.7902V16.4648H103.162ZM109.836 27.6343V43.125H104.655V23.313H109.53L109.836 27.6343ZM115.7 23.1847L115.61 28.0738C115.358 28.0371 115.052 28.0065 114.693 27.9821C114.345 27.9456 114.027 27.9272 113.739 27.9272C113.008 27.9272 112.372 28.0249 111.832 28.2202C111.305 28.4032 110.861 28.6779 110.501 29.0441C110.153 29.4103 109.889 29.856 109.71 30.3808C109.542 30.9058 109.446 31.5039 109.422 32.1754L108.378 31.8457C108.378 30.564 108.504 29.3859 108.756 28.3117C109.008 27.2254 109.374 26.2792 109.854 25.4736C110.345 24.6679 110.945 24.0454 111.652 23.6059C112.36 23.1666 113.17 22.9468 114.081 22.9468C114.369 22.9468 114.663 22.9712 114.962 23.0199C115.262 23.0567 115.508 23.1116 115.7 23.1847ZM123.615 23.313V43.125H118.416V23.313H123.615ZM118.093 18.1494C118.093 17.3804 118.357 16.7456 118.884 16.2451C119.412 15.7446 120.119 15.4944 121.007 15.4944C121.882 15.4944 122.584 15.7446 123.112 16.2451C123.651 16.7456 123.921 17.3804 123.921 18.1494C123.921 18.9184 123.651 19.5532 123.112 20.0537C122.584 20.5541 121.882 20.8044 121.007 20.8044C120.119 20.8044 119.412 20.5541 118.884 20.0537C118.357 19.5532 118.093 18.9184 118.093 18.1494ZM133.365 15V43.125H128.167V15H133.365ZM142.702 15V43.125H137.521V15H142.702ZM141.964 32.5232H140.543C140.555 31.1437 140.735 29.8742 141.083 28.7147C141.431 27.5428 141.928 26.5296 142.576 25.6751C143.224 24.8083 143.997 24.1369 144.897 23.6608C145.808 23.1847 146.816 22.9468 147.919 22.9468C148.878 22.9468 149.748 23.0872 150.527 23.3679C151.319 23.6364 151.997 24.0759 152.56 24.6863C153.136 25.2844 153.579 26.0717 153.891 27.0484C154.203 28.0249 154.359 29.2089 154.359 30.6006V43.125H149.142V30.564C149.142 29.685 149.016 28.9954 148.764 28.4949C148.525 27.9821 148.171 27.6221 147.703 27.4146C147.247 27.1948 146.684 27.0849 146.012 27.0849C145.268 27.0849 144.633 27.2254 144.105 27.5061C143.59 27.7869 143.176 28.1775 142.864 28.6779C142.552 29.1662 142.324 29.7399 142.18 30.3992C142.036 31.0584 141.964 31.7664 141.964 32.5232ZM168.804 38.6573V29.8316C168.804 29.1967 168.703 28.6536 168.499 28.2019C168.295 27.738 167.977 27.378 167.545 27.1215C167.126 26.8652 166.58 26.7371 165.908 26.7371C165.333 26.7371 164.835 26.8408 164.415 27.0484C163.995 27.2436 163.672 27.5304 163.444 27.909C163.216 28.2752 163.102 28.7085 163.102 29.2089H157.921C157.921 28.3667 158.113 27.5672 158.497 26.8103C158.88 26.0535 159.438 25.3882 160.17 24.8145C160.901 24.2286 161.771 23.7707 162.778 23.4412C163.797 23.1116 164.937 22.9468 166.196 22.9468C167.707 22.9468 169.05 23.2031 170.226 23.7158C171.401 24.2286 172.324 24.9975 172.996 26.0229C173.68 27.0484 174.021 28.3301 174.021 29.8682V38.346C174.021 39.4324 174.087 40.3236 174.219 41.0194C174.351 41.7028 174.543 42.3009 174.795 42.8137V43.125H169.56C169.308 42.5878 169.116 41.9166 168.984 41.1109C168.864 40.293 168.804 39.4751 168.804 38.6573ZM169.488 31.0584L169.524 34.0429H166.628C165.944 34.0429 165.35 34.1224 164.847 34.281C164.343 34.4396 163.929 34.6656 163.606 34.9584C163.282 35.2393 163.042 35.5689 162.886 35.9473C162.742 36.3257 162.67 36.7408 162.67 37.1923C162.67 37.644 162.772 38.0529 162.976 38.4191C163.18 38.7731 163.474 39.054 163.857 39.2616C164.241 39.4567 164.691 39.5544 165.207 39.5544C165.986 39.5544 166.664 39.3958 167.239 39.0784C167.815 38.7609 168.259 38.3704 168.571 37.9065C168.894 37.4426 169.062 37.0031 169.074 36.5882L170.442 38.8221C170.25 39.3225 169.986 39.8413 169.65 40.3785C169.326 40.9155 168.912 41.4221 168.409 41.8982C167.905 42.3621 167.299 42.7466 166.592 43.0517C165.884 43.3447 165.045 43.4912 164.073 43.4912C162.838 43.4912 161.717 43.2409 160.709 42.7404C159.714 42.2278 158.922 41.5258 158.335 40.6348C157.759 39.7314 157.471 38.706 157.471 37.5585C157.471 36.5211 157.663 35.5993 158.047 34.7936C158.431 33.9881 158.994 33.3105 159.738 32.7613C160.493 32.1997 161.435 31.7786 162.562 31.4977C163.689 31.2049 164.997 31.0584 166.484 31.0584H169.488Z" fill="#E1E1E6"/>
<path d="M193.252 16.4648V43.125H187.873V16.4648H193.252ZM210.306 23.313H215.001V42.4657C215.001 44.2725 214.605 45.8044 213.813 47.0617C213.034 48.3313 211.943 49.2896 210.54 49.9365C209.136 50.5957 207.506 50.9254 205.647 50.9254C204.831 50.9254 203.967 50.8155 203.055 50.5957C202.156 50.376 201.292 50.0342 200.465 49.5703C199.651 49.1064 198.966 48.5205 198.415 47.8125L200.699 44.6996C201.3 45.4076 201.994 45.957 202.786 46.3477C203.578 46.7505 204.453 46.9519 205.413 46.9519C206.349 46.9519 207.139 46.7749 207.788 46.4209C208.434 46.0791 208.933 45.5724 209.28 44.9012C209.628 44.2419 209.803 43.4424 209.803 42.5025V27.8906L210.306 23.313ZM197.21 33.4571V33.0726C197.21 31.5589 197.389 30.1856 197.75 28.9526C198.12 27.7074 198.643 26.6394 199.314 25.7482C199.997 24.8572 200.826 24.1674 201.797 23.6792C202.768 23.1909 203.866 22.9468 205.089 22.9468C206.384 22.9468 207.469 23.1909 208.346 23.6792C209.221 24.1674 209.939 24.8632 210.503 25.7666C211.067 26.6576 211.505 27.7136 211.816 28.9342C212.141 30.1429 212.393 31.4674 212.572 32.9077V33.75C212.393 35.1294 212.122 36.4112 211.763 37.5952C211.404 38.7793 210.93 39.8169 210.343 40.7079C209.755 41.5869 209.022 42.2706 208.147 42.7588C207.283 43.2471 206.251 43.4912 205.052 43.4912C203.853 43.4912 202.768 43.2409 201.797 42.7404C200.837 42.24 200.016 41.538 199.332 40.6348C198.649 39.7314 198.12 38.6694 197.75 37.4488C197.389 36.228 197.21 34.8975 197.21 33.4571ZM202.39 33.0726V33.4571C202.39 34.2748 202.468 35.0378 202.624 35.7459C202.781 36.4539 203.02 37.0824 203.344 37.6318C203.68 38.169 204.094 38.5901 204.586 38.8952C205.089 39.1882 205.682 39.3347 206.366 39.3347C207.314 39.3347 208.088 39.1333 208.687 38.7304C209.287 38.3154 209.737 37.7479 210.037 37.0275C210.335 36.3073 210.51 35.4773 210.558 34.5373V32.1386C210.534 31.3697 210.431 30.6799 210.252 30.0696C210.072 29.4471 209.819 28.9161 209.497 28.4766C209.173 28.0371 208.753 27.6952 208.237 27.4511C207.721 27.207 207.11 27.0849 206.402 27.0849C205.719 27.0849 205.126 27.2436 204.621 27.561C204.129 27.8662 203.717 28.2874 203.379 28.8244C203.055 29.3616 202.81 29.9962 202.643 30.7288C202.475 31.449 202.39 32.2303 202.39 33.0726ZM224.103 27.5428V43.125H218.923V23.313H223.779L224.103 27.5428ZM223.348 32.5232H221.944C221.944 31.0584 222.13 29.7399 222.502 28.5681C222.874 27.384 223.396 26.3769 224.068 25.5469C224.739 24.7046 225.536 24.0637 226.461 23.6242C227.395 23.1726 228.439 22.9468 229.591 22.9468C230.503 22.9468 231.335 23.0811 232.09 23.3496C232.846 23.6182 233.494 24.0454 234.034 24.6313C234.585 25.2172 235.005 25.9924 235.292 26.9569C235.592 27.9212 235.743 29.0991 235.743 30.4907V43.125H230.527V30.4725C230.527 29.5935 230.405 28.9099 230.166 28.4216C229.926 27.9334 229.572 27.5916 229.104 27.3962C228.649 27.1888 228.086 27.0849 227.413 27.0849C226.719 27.0849 226.113 27.2254 225.597 27.5061C225.092 27.7869 224.672 28.1775 224.337 28.6779C224.013 29.1662 223.768 29.7399 223.6 30.3992C223.433 31.0584 223.348 31.7664 223.348 32.5232ZM245.151 23.313V43.125H239.953V23.313H245.151ZM239.628 18.1494C239.628 17.3804 239.892 16.7456 240.421 16.2451C240.947 15.7446 241.655 15.4944 242.543 15.4944C243.418 15.4944 244.119 15.7446 244.648 16.2451C245.188 16.7456 245.457 17.3804 245.457 18.1494C245.457 18.9184 245.188 19.5532 244.648 20.0537C244.119 20.5541 243.418 20.8044 242.543 20.8044C241.655 20.8044 240.947 20.5541 240.421 20.0537C239.892 19.5532 239.628 18.9184 239.628 18.1494ZM258.967 23.313V27.0484H247.634V23.313H258.967ZM250.44 18.4241H255.622V37.1557C255.622 37.7295 255.693 38.169 255.837 38.4741C255.992 38.7793 256.22 38.9929 256.521 39.1149C256.821 39.2248 257.198 39.2797 257.653 39.2797C257.978 39.2797 258.265 39.2676 258.517 39.2432C258.781 39.2066 259.004 39.1699 259.182 39.1333L259.201 43.0151C258.757 43.1616 258.278 43.2776 257.762 43.3631C257.246 43.4484 256.677 43.4912 256.053 43.4912C254.914 43.4912 253.918 43.302 253.067 42.9236C252.227 42.5329 251.58 41.9104 251.123 41.0559C250.668 40.2015 250.44 39.0784 250.44 37.6867V18.4241ZM270.876 43.4912C269.366 43.4912 268.01 43.2471 266.81 42.7588C265.611 42.2584 264.591 41.5686 263.753 40.6897C262.924 39.8107 262.288 38.7915 261.846 37.6318C261.402 36.4599 261.179 35.2147 261.179 33.8964V33.1641C261.179 31.6626 261.389 30.2893 261.809 29.0441C262.229 27.7991 262.828 26.7187 263.609 25.8032C264.399 24.8876 265.359 24.1858 266.486 23.6976C267.614 23.1969 268.885 22.9468 270.299 22.9468C271.679 22.9468 272.902 23.1787 273.971 23.6426C275.037 24.1065 275.931 24.7656 276.651 25.6202C277.382 26.4746 277.933 27.5001 278.305 28.6963C278.677 29.8804 278.863 31.1987 278.863 32.6514V34.8486H263.392V31.3329H273.772V30.9302C273.772 30.1978 273.641 29.5447 273.376 28.971C273.125 28.3851 272.74 27.9212 272.224 27.5794C271.709 27.2376 271.049 27.0666 270.246 27.0666C269.563 27.0666 268.975 27.2192 268.483 27.5244C267.991 27.8295 267.59 28.2568 267.278 28.8062C266.978 29.3554 266.75 30.0024 266.595 30.747C266.451 31.4796 266.378 32.2852 266.378 33.1641V33.8964C266.378 34.6899 266.486 35.4223 266.702 36.0937C266.93 36.7652 267.247 37.3449 267.656 37.8332C268.076 38.3216 268.579 38.7 269.167 38.9685C269.767 39.237 270.443 39.3712 271.2 39.3712C272.134 39.3712 273.004 39.1882 273.809 38.8221C274.623 38.4437 275.325 37.8759 275.912 37.1192L278.43 39.9022C278.023 40.5006 277.465 41.0741 276.758 41.6235C276.063 42.1729 275.223 42.6246 274.24 42.9786C273.256 43.3204 272.134 43.4912 270.876 43.4912Z" fill="#00B37E"/>
<defs>
<linearGradient id="paint0_linear_19_2" x1="58.35" y1="-0.741758" x2="12.8212" y2="68.438" gradientUnits="userSpaceOnUse">
<stop stop-color="#00291D"/>
<stop offset="1" stop-color="#121214"/>
</linearGradient>
</defs>
</svg>
